<svg width="20" height="20" viewBox="0 0 20 20" fill="none" xmlns="http://www.w3.org/2000/svg">
<path d="M4 9.25C3.58579 9.25 3.25 9.58579 3.25 10C3.25 10.4142 3.58579 10.75 4 10.75L4 9.25ZM15 10.75C15.4142 10.75 15.75 10.4142 15.75 10C15.75 9.58579 15.4142 9.25 15 9.25L15 10.75ZM4 10.75L15 10.75L15 9.25L4 9.25L4 10.75Z" fill="#373F66"/>
<path d="M13.5303 6.46967C13.2374 6.17678 12.7626 6.17678 12.4697 6.46967C12.1768 6.76256 12.1768 7.23744 12.4697 7.53033L13.5303 6.46967ZM16 10L16.5303 10.5303C16.8232 10.2374 16.8232 9.76256 16.5303 9.46967L16 10ZM12.4697 12.4697C12.1768 12.7626 12.1768 13.2374 12.4697 13.5303C12.7626 13.8232 13.2374 13.8232 13.5303 13.5303L12.4697 12.4697ZM12.4697 7.53033L15.4697 10.5303L16.5303 9.46967L13.5303 6.46967L12.4697 7.53033ZM15.4697 9.46967L12.4697 12.4697L13.5303 13.5303L16.5303 10.5303L15.4697 9.46967Z" fill="#373F66"/>
</svg>
