<svg width="329" height="262" viewBox="0 0 329 262" fill="none" xmlns="http://www.w3.org/2000/svg">
<path d="M65.6016 131C29.4271 131 0.00156659 101.675 0.00156976 65.5004L65.6016 65.5004L65.6016 131Z" fill="#DF3888"/>
<path d="M65.6016 65.5L0.00156403 65.5L0.00156976 0.000368114C36.176 0.000371272 65.6016 29.3256 65.6016 65.5Z" fill="#FECD50"/>
<rect y="131" width="65.6" height="65.4996" rx="32.7498" fill="#DF3888"/>
<path d="M0 196.5C36.1744 196.5 65.6 225.825 65.6 262H0L0 196.5Z" fill="#373F66"/>
<path d="M65.6016 65.4996C65.6016 29.3252 95.0271 0 131.202 0V65.4996L65.6016 65.4996Z" fill="#FECD50"/>
<path d="M65.6016 65.5L131.202 65.5C131.202 101.674 101.776 131 65.6016 131L65.6016 65.5Z" fill="#373F66"/>
<path d="M65.6016 131H131.202V196.5C95.0271 196.5 65.6016 167.174 65.6016 131Z" fill="#4AC0B1"/>
<path d="M65.6016 262C65.6016 225.825 95.0271 196.5 131.202 196.5V262H65.6016Z" fill="#DF3888"/>
<rect x="131.203" width="65.6" height="65.4996" rx="32.7498" fill="#DF3888"/>
<path d="M131.203 65.5L196.803 65.5C196.803 101.674 167.378 131 131.203 131V65.5Z" fill="#4AC0B1"/>
<path d="M131.203 131H196.803C196.803 167.174 167.378 196.5 131.203 196.5V131Z" fill="#FECD50"/>
<rect x="131.203" y="196.5" width="65.6" height="65.4996" rx="32.7498" fill="#FECD50"/>
<path d="M328 65.5L262.4 65.5L262.4 0.000368114C298.574 0.000371272 328 29.3256 328 65.5Z" fill="#DF3888"/>
<path d="M196.801 65.5L262.401 65.5V131C226.226 131 196.801 101.674 196.801 65.5Z" fill="#FECD50"/>
<path d="M196.801 196.5C196.801 160.325 226.226 131 262.401 131V196.5H196.801Z" fill="#FECD50"/>
<path d="M196.801 196.5H262.401C262.401 232.674 232.975 262 196.801 262V196.5Z" fill="#DF3888"/>
<path d="M262.402 65.5L196.802 65.5C196.802 29.3256 226.228 0.000370683 262.402 0.00037384L262.402 65.5Z" fill="#373F66"/>
<rect x="262.402" y="65.5" width="65.6" height="65.4996" rx="32.7498" fill="#DF3888"/>
<path d="M262.402 131C298.577 131 328.002 160.325 328.002 196.5H262.402V131Z" fill="#373F66"/>
<path d="M262.402 196.5H328.002V262C291.828 262 262.402 232.674 262.402 196.5Z" fill="#FECD50"/>
</svg>
