<svg width="284" height="113" viewBox="0 0 284 113" fill="none" xmlns="http://www.w3.org/2000/svg">
<path d="M56.7998 113C25.6078 113 -4.73645e-05 87.7139 -4.46179e-05 56.5218L56.7998 56.5218L56.7998 113Z" fill="#DF3888"/>
<path d="M0.043457 0L0.0434546 56.5647L56.7564 56.5647C56.7564 25.3249 31.2833 1.35717e-06 0.043457 0Z" fill="#FECD50"/>
<path d="M56.7998 56.5211C56.7998 25.3291 82.4076 0.0429687 113.6 0.0429687V56.5211L56.7998 56.5211Z" fill="#FECD50"/>
<path d="M56.7998 56.5215H113.6C113.6 87.7135 87.9918 113 56.7998 113V56.5215Z" fill="#373F66"/>
<rect x="113.601" y="0.0429688" width="56.7999" height="56.4782" rx="28.2391" fill="#DF3888"/>
<path d="M113.601 56.5215L170.401 56.5215C170.401 87.7135 144.793 113 113.601 113L113.601 56.5215Z" fill="#4AC0B1"/>
<path d="M283.998 56.5215L227.198 56.5215L227.198 0.0433148C258.39 0.0433175 283.998 25.3295 283.998 56.5215Z" fill="#DF3888"/>
<path d="M170.398 56.5215L227.198 56.5215V113C196.006 113 170.398 87.7135 170.398 56.5215Z" fill="#FECD50"/>
<path d="M227.2 56.5225L170.4 56.5225C170.4 25.3304 196.008 0.0442935 227.2 0.0442963L227.2 56.5225Z" fill="#373F66"/>
<rect x="227.2" y="56.5215" width="56.7999" height="56.4782" rx="28.2391" fill="#DF3888"/>
</svg>
