<svg width="46" height="46" viewBox="0 0 46 46" fill="none" xmlns="http://www.w3.org/2000/svg">
<path d="M6.1333 21.5C5.30487 21.5 4.6333 22.1716 4.6333 23C4.6333 23.8284 5.30487 24.5 6.1333 24.5L6.1333 21.5ZM36.8 24.5C37.6284 24.5 38.3 23.8284 38.3 23C38.3 22.1716 37.6284 21.5 36.8 21.5L36.8 24.5ZM6.1333 24.5L36.8 24.5L36.8 21.5L6.1333 21.5L6.1333 24.5Z" fill="white"/>
<path d="M31.7274 14.2726C31.1416 13.6868 30.1919 13.6868 29.6061 14.2726C29.0203 14.8584 29.0203 15.8081 29.6061 16.3939L31.7274 14.2726ZM38.3334 22.9999L39.3941 24.0606C39.9799 23.4748 39.9799 22.525 39.3941 21.9393L38.3334 22.9999ZM29.6061 29.6059C29.0203 30.1917 29.0203 31.1415 29.6061 31.7272C30.1919 32.313 31.1416 32.313 31.7274 31.7272L29.6061 29.6059ZM29.6061 16.3939L37.2728 24.0606L39.3941 21.9393L31.7274 14.2726L29.6061 16.3939ZM37.2728 21.9393L29.6061 29.6059L31.7274 31.7272L39.3941 24.0606L37.2728 21.9393Z" fill="white"/>
</svg>
