<svg width="30" height="30" viewBox="0 0 30 30" fill="none" xmlns="http://www.w3.org/2000/svg">
<circle cx="15" cy="15" r="15" fill="white"/>
<path d="M24 8.00785C23.3036 8.53487 22.5324 8.93795 21.7164 9.20158C21.2784 8.66129 20.6962 8.27834 20.0488 8.10454C19.4013 7.93073 18.7196 7.97445 18.0961 8.22978C17.4725 8.48511 16.937 8.93974 16.5622 9.53217C16.1873 10.1246 15.9911 10.8263 16 11.5422V12.3225C14.7219 12.358 13.4555 12.0539 12.3135 11.4373C11.1714 10.8206 10.1893 9.91052 9.45455 8.78806C9.45455 8.78806 6.54545 15.81 13.0909 18.9309C11.5931 20.0216 9.80884 20.5685 8 20.4913C14.5455 24.3924 22.5455 20.4913 22.5455 11.5188C22.5448 11.3015 22.5253 11.0847 22.4873 10.8712C23.2295 10.086 23.7533 9.09447 24 8.00785Z" fill="white" stroke="#4AC0B1" stroke-width="1.5" stroke-linecap="round" stroke-linejoin="round"/>
</svg>
