<svg width="30" height="30" viewBox="0 0 30 30" fill="none" xmlns="http://www.w3.org/2000/svg">
<circle cx="15" cy="15" r="15" fill="white"/>
<path d="M19 7H11C8.79086 7 7 8.79086 7 11V19C7 21.2091 8.79086 23 11 23H19C21.2091 23 23 21.2091 23 19V11C23 8.79086 21.2091 7 19 7Z" fill="white" stroke="#4AC0B1" stroke-width="1.5" stroke-linecap="round" stroke-linejoin="round"/>
<path d="M17.9675 14.56C18.0601 15.1841 17.9535 15.8216 17.6629 16.3817C17.3722 16.9418 16.9124 17.396 16.3488 17.6797C15.7851 17.9634 15.1464 18.0621 14.5234 17.9619C13.9004 17.8616 13.3249 17.5675 12.8787 17.1213C12.4325 16.6751 12.1384 16.0996 12.0381 15.4766C11.9379 14.8536 12.0366 14.2149 12.3203 13.6512C12.604 13.0876 13.0582 12.6278 13.6183 12.3371C14.1784 12.0465 14.8159 11.9399 15.4401 12.0325C16.0767 12.1269 16.6662 12.4235 17.1213 12.8787C17.5765 13.3338 17.8731 13.9233 17.9675 14.56Z" stroke="#4AC0B1" stroke-width="1.5" stroke-linecap="round" stroke-linejoin="round"/>
<path d="M18.0108 10.8533C17.98 11.0614 18.0155 11.2739 18.1124 11.4606C18.2093 11.6473 18.3625 11.7987 18.5504 11.8932C18.7383 11.9878 18.9512 12.0207 19.1589 11.9873C19.3665 11.9539 19.5584 11.8558 19.7071 11.7071C19.8558 11.5584 19.9539 11.3665 19.9873 11.1589C20.0207 10.9512 19.9878 10.7383 19.8932 10.5504C19.7987 10.3625 19.6473 10.2093 19.4606 10.1124C19.2739 10.0155 19.0614 9.97996 18.8533 10.0108C18.6411 10.0423 18.4446 10.1412 18.2929 10.2929C18.1412 10.4446 18.0423 10.6411 18.0108 10.8533Z" fill="#4AC0B1"/>
</svg>
