<svg width="74" height="22" viewBox="0 0 74 22" fill="none" xmlns="http://www.w3.org/2000/svg">
<g filter="url(#filter0_b_646_450)">
<rect width="74" height="22" fill="white" fill-opacity="0.85"/>
</g>
<path d="M22.72 14V8.16H23.856V14H22.72ZM23.696 14V13H26.216V14H23.696ZM28.951 14.152C28.5777 14.152 28.2497 14.088 27.967 13.96C27.6897 13.832 27.4577 13.6613 27.271 13.448C27.0897 13.2293 26.951 12.9867 26.855 12.72C26.7643 12.4533 26.719 12.1813 26.719 11.904V11.752C26.719 11.464 26.7643 11.1867 26.855 10.92C26.951 10.648 27.0897 10.408 27.271 10.2C27.4577 9.98667 27.687 9.81867 27.959 9.696C28.231 9.568 28.5457 9.504 28.903 9.504C29.3723 9.504 29.7643 9.608 30.079 9.816C30.399 10.0187 30.639 10.288 30.799 10.624C30.959 10.9547 31.039 11.312 31.039 11.696V12.096H27.191V11.416H30.343L29.999 11.752C29.999 11.4747 29.959 11.2373 29.879 11.04C29.799 10.8427 29.6763 10.6907 29.511 10.584C29.351 10.4773 29.1483 10.424 28.903 10.424C28.6577 10.424 28.4497 10.48 28.279 10.592C28.1083 10.704 27.9777 10.8667 27.887 11.08C27.8017 11.288 27.759 11.5387 27.759 11.832C27.759 12.104 27.8017 12.3467 27.887 12.56C27.9723 12.768 28.103 12.9333 28.279 13.056C28.455 13.1733 28.679 13.232 28.951 13.232C29.223 13.232 29.4443 13.1787 29.615 13.072C29.7857 12.96 29.895 12.824 29.943 12.664H30.967C30.903 12.9627 30.7803 13.224 30.599 13.448C30.4177 13.672 30.1857 13.8453 29.903 13.968C29.6257 14.0907 29.3083 14.152 28.951 14.152ZM34.5999 14V12.712H34.4159V11.28C34.4159 11.0293 34.3546 10.8427 34.2319 10.72C34.1093 10.5973 33.9199 10.536 33.6639 10.536C33.5306 10.536 33.3706 10.5387 33.1839 10.544C32.9973 10.5493 32.8079 10.5573 32.6159 10.568C32.4293 10.5733 32.2613 10.5813 32.1119 10.592V9.648C32.2346 9.63733 32.3733 9.62667 32.5279 9.616C32.6826 9.60533 32.8399 9.6 32.9999 9.6C33.1653 9.59467 33.3199 9.592 33.4639 9.592C33.9119 9.592 34.2826 9.65067 34.5759 9.768C34.8746 9.88533 35.0986 10.0693 35.2479 10.32C35.4026 10.5707 35.4799 10.8987 35.4799 11.304V14H34.5999ZM33.1999 14.112C32.8853 14.112 32.6079 14.056 32.3679 13.944C32.1333 13.832 31.9493 13.672 31.8159 13.464C31.6879 13.256 31.6239 13.0053 31.6239 12.712C31.6239 12.392 31.7013 12.1307 31.8559 11.928C32.0159 11.7253 32.2373 11.5733 32.5199 11.472C32.8079 11.3707 33.1439 11.32 33.5279 11.32H34.5359V11.984H33.5119C33.2559 11.984 33.0586 12.048 32.9199 12.176C32.7866 12.2987 32.7199 12.4587 32.7199 12.656C32.7199 12.8533 32.7866 13.0133 32.9199 13.136C33.0586 13.2587 33.2559 13.32 33.5119 13.32C33.6666 13.32 33.8079 13.2933 33.9359 13.24C34.0693 13.1813 34.1786 13.0853 34.2639 12.952C34.3546 12.8133 34.4053 12.6267 34.4159 12.392L34.6879 12.704C34.6613 13.008 34.5866 13.264 34.4639 13.472C34.3466 13.68 34.1813 13.84 33.9679 13.952C33.7599 14.0587 33.5039 14.112 33.1999 14.112ZM36.6711 14V9.656H37.5511V11.496H37.5271C37.5271 10.872 37.6604 10.4 37.9271 10.08C38.1937 9.76 38.5857 9.6 39.1031 9.6H39.2631V10.568H38.9591C38.5857 10.568 38.2951 10.6693 38.0871 10.872C37.8844 11.0693 37.7831 11.3573 37.7831 11.736V14H36.6711ZM40.007 14V9.656H40.887V11.52H40.807C40.807 11.0773 40.8657 10.7093 40.983 10.416C41.1003 10.1173 41.2737 9.89333 41.503 9.744C41.7377 9.59467 42.0283 9.52 42.375 9.52H42.423C42.9403 9.52 43.3323 9.688 43.599 10.024C43.8657 10.3547 43.999 10.8507 43.999 11.512V14H42.887V11.416C42.887 11.1493 42.8097 10.9333 42.655 10.768C42.5057 10.6027 42.2977 10.52 42.031 10.52C41.759 10.52 41.5377 10.6053 41.367 10.776C41.2017 10.9413 41.119 11.1653 41.119 11.448V14H40.007ZM46.9211 14V9.656H47.8011V11.52H47.7211C47.7211 11.0827 47.7771 10.7173 47.8891 10.424C48.0011 10.1253 48.1664 9.90133 48.3851 9.752C48.6091 9.59733 48.8864 9.52 49.2171 9.52H49.2651C49.6011 9.52 49.8784 9.59733 50.0971 9.752C50.3211 9.90133 50.4864 10.1253 50.5931 10.424C50.7051 10.7173 50.7611 11.0827 50.7611 11.52H50.4811C50.4811 11.0827 50.5371 10.7173 50.6491 10.424C50.7664 10.1253 50.9344 9.90133 51.1531 9.752C51.3771 9.59733 51.6544 9.52 51.9851 9.52H52.0331C52.3691 9.52 52.6491 9.59733 52.8731 9.752C53.0971 9.90133 53.2651 10.1253 53.3771 10.424C53.4944 10.7173 53.5531 11.0827 53.5531 11.52V14H52.4411V11.416C52.4411 11.144 52.3717 10.928 52.2331 10.768C52.0944 10.6027 51.8971 10.52 51.6411 10.52C51.3851 10.52 51.1797 10.6053 51.0251 10.776C50.8704 10.9413 50.7931 11.1653 50.7931 11.448V14H49.6811V11.416C49.6811 11.144 49.6117 10.928 49.4731 10.768C49.3344 10.6027 49.1371 10.52 48.8811 10.52C48.6251 10.52 48.4197 10.6053 48.2651 10.776C48.1104 10.9413 48.0331 11.1653 48.0331 11.448V14H46.9211ZM56.8294 14.152C56.4454 14.152 56.1067 14.0907 55.8134 13.968C55.52 13.8453 55.272 13.68 55.0694 13.472C54.8667 13.2587 54.712 13.0187 54.6054 12.752C54.504 12.4853 54.4534 12.208 54.4534 11.92V11.752C54.4534 11.4533 54.5067 11.1707 54.6134 10.904C54.7254 10.632 54.8827 10.392 55.0854 10.184C55.2934 9.97067 55.544 9.80533 55.8374 9.688C56.1307 9.56533 56.4614 9.504 56.8294 9.504C57.1974 9.504 57.528 9.56533 57.8214 9.688C58.1147 9.80533 58.3627 9.97067 58.5654 10.184C58.7734 10.392 58.9307 10.632 59.0374 10.904C59.144 11.1707 59.1974 11.4533 59.1974 11.752V11.92C59.1974 12.208 59.144 12.4853 59.0374 12.752C58.936 13.0187 58.784 13.2587 58.5814 13.472C58.3787 13.68 58.1307 13.8453 57.8374 13.968C57.544 14.0907 57.208 14.152 56.8294 14.152ZM56.8294 13.2C57.1014 13.2 57.3307 13.1413 57.5174 13.024C57.704 12.9013 57.8454 12.7387 57.9414 12.536C58.0374 12.328 58.0854 12.0933 58.0854 11.832C58.0854 11.5653 58.0347 11.3307 57.9334 11.128C57.8374 10.92 57.6934 10.7573 57.5014 10.64C57.3147 10.5173 57.0907 10.456 56.8294 10.456C56.568 10.456 56.3414 10.5173 56.1494 10.64C55.9627 10.7573 55.8187 10.92 55.7174 11.128C55.616 11.3307 55.5654 11.5653 55.5654 11.832C55.5654 12.0933 55.6134 12.328 55.7094 12.536C55.8107 12.7387 55.9547 12.9013 56.1414 13.024C56.328 13.1413 56.5574 13.2 56.8294 13.2ZM60.1711 14V9.656H61.0511V11.496H61.0271C61.0271 10.872 61.1604 10.4 61.4271 10.08C61.6937 9.76 62.0857 9.6 62.6031 9.6H62.7631V10.568H62.4591C62.0857 10.568 61.7951 10.6693 61.5871 10.872C61.3844 11.0693 61.2831 11.3573 61.2831 11.736V14H60.1711ZM65.4198 14.152C65.0464 14.152 64.7184 14.088 64.4358 13.96C64.1584 13.832 63.9264 13.6613 63.7398 13.448C63.5584 13.2293 63.4198 12.9867 63.3238 12.72C63.2331 12.4533 63.1878 12.1813 63.1878 11.904V11.752C63.1878 11.464 63.2331 11.1867 63.3238 10.92C63.4198 10.648 63.5584 10.408 63.7398 10.2C63.9264 9.98667 64.1558 9.81867 64.4278 9.696C64.6998 9.568 65.0144 9.504 65.3718 9.504C65.8411 9.504 66.2331 9.608 66.5478 9.816C66.8678 10.0187 67.1078 10.288 67.2678 10.624C67.4278 10.9547 67.5078 11.312 67.5078 11.696V12.096H63.6598V11.416H66.8118L66.4678 11.752C66.4678 11.4747 66.4278 11.2373 66.3478 11.04C66.2678 10.8427 66.1451 10.6907 65.9798 10.584C65.8198 10.4773 65.6171 10.424 65.3718 10.424C65.1264 10.424 64.9184 10.48 64.7478 10.592C64.5771 10.704 64.4464 10.8667 64.3558 11.08C64.2704 11.288 64.2278 11.5387 64.2278 11.832C64.2278 12.104 64.2704 12.3467 64.3558 12.56C64.4411 12.768 64.5718 12.9333 64.7478 13.056C64.9238 13.1733 65.1478 13.232 65.4198 13.232C65.6918 13.232 65.9131 13.1787 66.0838 13.072C66.2544 12.96 66.3638 12.824 66.4118 12.664H67.4358C67.3718 12.9627 67.2491 13.224 67.0677 13.448C66.8864 13.672 66.6544 13.8453 66.3718 13.968C66.0944 14.0907 65.7771 14.152 65.4198 14.152Z" fill="black"/>
<path d="M11 17C12.5913 17 14.1174 16.3679 15.2426 15.2426C16.3679 14.1174 17 12.5913 17 11C17 9.4087 16.3679 7.88258 15.2426 6.75736C14.1174 5.63214 12.5913 5 11 5C9.4087 5 7.88258 5.63214 6.75736 6.75736C5.63214 7.88258 5 9.4087 5 11C5 12.5913 5.63214 14.1174 6.75736 15.2426C7.88258 16.3679 9.4087 17 11 17ZM11.6975 9.941L10.9475 13.4698C10.895 13.7248 10.9693 13.8695 11.1755 13.8695C11.321 13.8695 11.5408 13.817 11.69 13.685L11.624 13.997C11.4088 14.2565 10.934 14.4455 10.5252 14.4455C9.998 14.4455 9.77375 14.129 9.91925 13.4562L10.4727 10.8553C10.5208 10.6355 10.4773 10.556 10.2575 10.5027L9.91925 10.442L9.98075 10.1562L11.6982 9.941H11.6975ZM11 9.125C10.8011 9.125 10.6103 9.04598 10.4697 8.90533C10.329 8.76468 10.25 8.57391 10.25 8.375C10.25 8.17609 10.329 7.98532 10.4697 7.84467C10.6103 7.70402 10.8011 7.625 11 7.625C11.1989 7.625 11.3897 7.70402 11.5303 7.84467C11.671 7.98532 11.75 8.17609 11.75 8.375C11.75 8.57391 11.671 8.76468 11.5303 8.90533C11.3897 9.04598 11.1989 9.125 11 9.125Z" fill="#6CBDB1"/>
<defs>
<filter id="filter0_b_646_450" x="-153" y="-153" width="380" height="328" filterUnits="userSpaceOnUse" color-interpolation-filters="sRGB">
<feFlood flood-opacity="0" result="BackgroundImageFix"/>
<feGaussianBlur in="BackgroundImage" stdDeviation="76.5"/>
<feComposite in2="SourceAlpha" operator="in" result="effect1_backgroundBlur_646_450"/>
<feBlend mode="normal" in="SourceGraphic" in2="effect1_backgroundBlur_646_450" result="shape"/>
</filter>
</defs>
</svg>
