<svg width="60" height="60" viewBox="0 0 60 60" fill="none" xmlns="http://www.w3.org/2000/svg">
<path d="M8 28.5C7.17157 28.5 6.5 29.1716 6.5 30C6.5 30.8284 7.17157 31.5 8 31.5L8 28.5ZM48 31.5C48.8284 31.5 49.5 30.8284 49.5 30C49.5 29.1716 48.8284 28.5 48 28.5L48 31.5ZM8 31.5L48 31.5L48 28.5L8 28.5L8 31.5Z" fill="white"/>
<path d="M41.0607 18.9393C40.4749 18.3536 39.5251 18.3536 38.9393 18.9393C38.3536 19.5251 38.3536 20.4749 38.9393 21.0607L41.0607 18.9393ZM50 30L51.0607 31.0607C51.6464 30.4749 51.6464 29.5251 51.0607 28.9393L50 30ZM38.9393 38.9393C38.3536 39.5251 38.3536 40.4749 38.9393 41.0607C39.5251 41.6464 40.4749 41.6464 41.0607 41.0607L38.9393 38.9393ZM38.9393 21.0607L48.9393 31.0607L51.0607 28.9393L41.0607 18.9393L38.9393 21.0607ZM48.9393 28.9393L38.9393 38.9393L41.0607 41.0607L51.0607 31.0607L48.9393 28.9393Z" fill="white"/>
</svg>
