<svg width="40" height="60" viewBox="0 0 40 60" fill="none" xmlns="http://www.w3.org/2000/svg">
<g opacity="0.4">
<path d="M20 40C8.95439 40 4.27354e-05 31.0458 4.36898e-05 20.0002L20 20.0002L20 40Z" fill="#DF3888"/>
<path d="M20 20L4.19617e-05 20L4.36897e-05 0.000156541C11.0456 0.000157518 20 8.95439 20 20Z" fill="#FECD50"/>
<rect y="40" width="20" height="19.9998" rx="9.99992" fill="#FECD50"/>
<path d="M20 19.9998C20 8.95424 28.9544 0 40 0V19.9998L20 19.9998Z" fill="#FECD50"/>
<path d="M20 20L40 20C40 31.0456 31.0456 39.9998 20 39.9998L20 20Z" fill="#373F66"/>
<path d="M20 40H40V59.9998C28.9544 59.9998 20 51.0456 20 40Z" fill="#4AC0B1"/>
</g>
</svg>
