<svg width="30" height="30" viewBox="0 0 30 30" fill="none" xmlns="http://www.w3.org/2000/svg">
<path d="M21 11C22.6569 11 24 9.65685 24 8C24 6.34315 22.6569 5 21 5C19.3431 5 18 6.34315 18 8C18 9.65685 19.3431 11 21 11Z" stroke="#373F66" stroke-width="2" stroke-linecap="round" stroke-linejoin="round"/>
<path d="M8 18C9.65685 18 11 16.6569 11 15C11 13.3431 9.65685 12 8 12C6.34315 12 5 13.3431 5 15C5 16.6569 6.34315 18 8 18Z" stroke="#373F66" stroke-width="2" stroke-linecap="round" stroke-linejoin="round"/>
<path d="M21 25C22.6569 25 24 23.6569 24 22C24 20.3431 22.6569 19 21 19C19.3431 19 18 20.3431 18 22C18 23.6569 19.3431 25 21 25Z" stroke="#373F66" stroke-width="2" stroke-linecap="round" stroke-linejoin="round"/>
<path d="M11 17L18 21" stroke="#373F66" stroke-width="2" stroke-linecap="round" stroke-linejoin="round"/>
<path d="M18 9L11 13" stroke="#373F66" stroke-width="2" stroke-linecap="round" stroke-linejoin="round"/>
</svg>
